<svg width="40" height="40" viewBox="0 0 40 40" fill="none" xmlns="http://www.w3.org/2000/svg">
<path d="M3.75 20C3.75 28.9742 11.0258 36.25 20 36.25C28.9742 36.25 36.25 28.9742 36.25 20C36.25 11.0258 28.9742 3.75 20 3.75C11.0258 3.75 3.75 11.0258 3.75 20ZM23.857 20L17.2414 13.3836C17.0169 13.1473 16.8936 12.8326 16.8977 12.5066C16.9019 12.1807 17.0332 11.8692 17.2637 11.6387C17.4942 11.4082 17.8057 11.2769 18.1316 11.2727C18.4576 11.2686 18.7723 11.3919 19.0086 11.6164L26.5086 19.1164C26.7428 19.3508 26.8744 19.6686 26.8744 20C26.8744 20.3314 26.7428 20.6492 26.5086 20.8836L19.0086 28.3836C18.7723 28.6081 18.4576 28.7314 18.1316 28.7273C17.8057 28.7231 17.4942 28.5918 17.2637 28.3613C17.0332 28.1308 16.9019 27.8193 16.8977 27.4934C16.8936 27.1674 17.0169 26.8527 17.2414 26.6164L23.857 20Z" fill="#050505"/>
</svg>
