<svg width="40" height="40" viewBox="0 0 40 40" fill="none" xmlns="http://www.w3.org/2000/svg">
<path d="M20 3.75C11.0258 3.75 3.75 11.0258 3.75 20C3.75 28.9742 11.0258 36.25 20 36.25C28.9742 36.25 36.25 28.9742 36.25 20C36.25 11.0258 28.9742 3.75 20 3.75ZM22.7586 26.6164C22.8796 26.7313 22.9763 26.8693 23.0431 27.0222C23.1099 27.1751 23.1454 27.3398 23.1475 27.5066C23.1497 27.6735 23.1184 27.839 23.0555 27.9936C22.9927 28.1481 22.8995 28.2885 22.7815 28.4065C22.6635 28.5245 22.5231 28.6177 22.3686 28.6805C22.214 28.7434 22.0485 28.7747 21.8816 28.7725C21.7148 28.7704 21.5501 28.7349 21.3972 28.6681C21.2443 28.6013 21.1063 28.5046 20.9914 28.3836L13.4914 20.8836C13.2572 20.6492 13.1256 20.3314 13.1256 20C13.1256 19.6686 13.2572 19.3508 13.4914 19.1164L20.9914 11.6164C21.2277 11.3919 21.5424 11.2686 21.8684 11.2727C22.1943 11.2769 22.5058 11.4082 22.7363 11.6387C22.9668 11.8692 23.0981 12.1807 23.1023 12.5066C23.1064 12.8326 22.9831 13.1473 22.7586 13.3836L16.143 20L22.7586 26.6164Z" fill="#050505"/>
</svg>
